<?xml version="1.0" encoding="utf-8"?>
<!-- Generator: Adobe Illustrator 21.0.0, SVG Export Plug-In . SVG Version: 6.00 Build 0)  -->
<svg version="1.1" id="Layer_1" xmlns="http://www.w3.org/2000/svg" xmlns:xlink="http://www.w3.org/1999/xlink" x="0px" y="0px"
	 viewBox="0 0 9 12" style="enable-background:new 0 0 9 12;" xml:space="preserve">
<style type="text/css">
	.st0{enable-background:new    ;}
	.st1{fill:#080808;}
</style>
<title>icon / arrowRight</title>
<desc>Created with Sketch.</desc>
<g id="Styleguide">
	<g id="Artboard" transform="translate(-2055.000000, -561.000000)">
		<g id="icon-_x2F_-_x23_21" transform="translate(2046.000000, 554.000000)">
			<g class="st0">
				<path class="st1" d="M12.1,18.6c-0.2,0.2-0.4,0.2-0.6,0.2s-0.4-0.1-0.6-0.2l-0.8-0.8c-0.2-0.2-0.2-0.4-0.2-0.6s0.1-0.4,0.2-0.6
					l3.4-3.4l-3.4-3.4C10,9.7,9.9,9.5,9.9,9.3s0.1-0.4,0.2-0.6l0.8-0.8c0.2-0.2,0.4-0.2,0.6-0.2s0.4,0.1,0.6,0.2l4.8,4.8
					c0.2,0.2,0.2,0.4,0.2,0.6s-0.1,0.4-0.2,0.6L12.1,18.6z"/>
			</g>
		</g>
	</g>
</g>
</svg>
