<?xml version="1.0" encoding="utf-8"?>
<!-- Generator: Adobe Illustrator 21.0.0, SVG Export Plug-In . SVG Version: 6.00 Build 0)  -->
<svg version="1.1" id="Layer_1" xmlns="http://www.w3.org/2000/svg" xmlns:xlink="http://www.w3.org/1999/xlink" x="0px" y="0px"
	 viewBox="0 0 12 9" style="enable-background:new 0 0 12 9;" xml:space="preserve">
<style type="text/css">
	.st0{enable-background:new    ;}
	.st1{fill:#080808;}
</style>
<title>icon / arrowDown</title>
<desc>Created with Sketch.</desc>
<g id="Styleguide">
	<g id="Artboard" transform="translate(-1981.000000, -562.000000)">
		<g id="icon-_x2F_-_x23_20" transform="translate(1974.000000, 554.000000)">
			<g class="st0">
				<path class="st1" d="M7.6,11.8c-0.2-0.2-0.2-0.4-0.2-0.6s0.1-0.4,0.2-0.6l0.8-0.8C8.6,9.7,8.8,9.6,9,9.6s0.4,0.1,0.6,0.2
					l3.4,3.4l3.4-3.4c0.2-0.2,0.4-0.2,0.6-0.2s0.4,0.1,0.6,0.2l0.8,0.8c0.2,0.2,0.2,0.4,0.2,0.6s-0.1,0.4-0.2,0.6l-4.8,4.8
					c-0.2,0.2-0.4,0.2-0.6,0.2s-0.4-0.1-0.6-0.2L7.6,11.8z"/>
			</g>
		</g>
	</g>
</g>
</svg>
