<?xml version="1.0" encoding="utf-8"?>
<!-- Generator: Adobe Illustrator 21.0.0, SVG Export Plug-In . SVG Version: 6.00 Build 0)  -->
<svg version="1.1" id="Layer_1" xmlns="http://www.w3.org/2000/svg" xmlns:xlink="http://www.w3.org/1999/xlink" x="0px" y="0px"
	 viewBox="0 0 21 17" style="enable-background:new 0 0 21 17;" xml:space="preserve">
<style type="text/css">
	.st0{enable-background:new    ;}
	.st1{fill:#080808;}
</style>
<title>icon / filter</title>
<desc>Created with Sketch.</desc>
<g id="Styleguide">
	<g id="Artboard" transform="translate(-2124.000000, -430.000000)">
		<g id="icon-_x2F_-_x23_6" transform="translate(2122.000000, 425.000000)">
			<g class="st0">
				<path class="st1" d="M22.6,8.5c0,0.1,0,0.2-0.1,0.3s-0.2,0.1-0.3,0.1H8v0.3c0,0.2-0.1,0.4-0.2,0.6S7.4,10,7.2,10H6.6
					C6.4,10,6.2,9.9,6,9.8S5.8,9.4,5.8,9.2V8.9h-3c-0.1,0-0.2,0-0.3-0.1S2.4,8.6,2.4,8.5V7.1c0-0.1,0-0.2,0.1-0.3s0.2-0.1,0.3-0.1h3
					V6.4c0-0.2,0.1-0.4,0.2-0.6s0.4-0.2,0.6-0.2h0.6c0.2,0,0.4,0.1,0.6,0.2S8,6.1,8,6.4v0.3h14.2c0.1,0,0.2,0,0.3,0.1
					s0.1,0.2,0.1,0.3V8.5z M19.3,12.3V12c0-0.2-0.1-0.4-0.2-0.6s-0.4-0.2-0.6-0.2h-0.6c-0.2,0-0.4,0.1-0.6,0.2S17,11.7,17,12v0.3
					H2.8c-0.1,0-0.2,0-0.3,0.1s-0.1,0.2-0.1,0.3v1.4c0,0.1,0,0.2,0.1,0.3s0.2,0.1,0.3,0.1H17v0.3c0,0.2,0.1,0.4,0.2,0.6
					s0.4,0.2,0.6,0.2h0.6c0.2,0,0.4-0.1,0.6-0.2s0.2-0.4,0.2-0.6v-0.3h3c0.1,0,0.2,0,0.3-0.1s0.1-0.2,0.1-0.3v-1.4
					c0-0.1,0-0.2-0.1-0.3s-0.2-0.1-0.3-0.1H19.3z M12.5,17.9v-0.3c0-0.2-0.1-0.4-0.2-0.6s-0.4-0.2-0.6-0.2h-0.6
					c-0.2,0-0.4,0.1-0.6,0.2s-0.2,0.4-0.2,0.6v0.3H2.8c-0.1,0-0.2,0-0.3,0.1s-0.1,0.2-0.1,0.3v1.4c0,0.1,0,0.2,0.1,0.3
					s0.2,0.1,0.3,0.1h7.5v0.3c0,0.2,0.1,0.4,0.2,0.6s0.4,0.2,0.6,0.2h0.6c0.2,0,0.4-0.1,0.6-0.2s0.2-0.4,0.2-0.6v-0.3h9.7
					c0.1,0,0.2,0,0.3-0.1s0.1-0.2,0.1-0.3v-1.4c0-0.1,0-0.2-0.1-0.3s-0.2-0.1-0.3-0.1H12.5z"/>
			</g>
		</g>
	</g>
</g>
</svg>
