<?xml version="1.0" encoding="utf-8"?>
<!-- Generator: Adobe Illustrator 21.0.0, SVG Export Plug-In . SVG Version: 6.00 Build 0)  -->
<svg version="1.1" id="Layer_1" xmlns="http://www.w3.org/2000/svg" xmlns:xlink="http://www.w3.org/1999/xlink" x="0px" y="0px"
	 viewBox="0 0 6 18" style="enable-background:new 0 0 6 18;" xml:space="preserve">
<style type="text/css">
	.st0{enable-background:new    ;}
	.st1{fill:#080808;}
</style>
<title>icon / moreMenu</title>
<desc>Created with Sketch.</desc>
<g id="Styleguide">
	<g id="Artboard" transform="translate(-2056.000000, -429.000000)">
		<g id="icon-_x2F_-_x23_5" transform="translate(2046.000000, 425.000000)">
			<g class="st0">
				<path class="st1" d="M11,7.1c0-0.7,0.2-1.3,0.7-1.8s1.1-0.7,1.8-0.7s1.3,0.2,1.8,0.7S16,6.4,16,7.1s-0.2,1.3-0.7,1.8
					s-1.1,0.7-1.8,0.7s-1.3-0.2-1.8-0.7S11,7.8,11,7.1z M13.5,10.7c-0.7,0-1.3,0.2-1.8,0.7S11,12.5,11,13.2c0,0.7,0.2,1.3,0.7,1.8
					s1.1,0.7,1.8,0.7s1.3-0.2,1.8-0.7S16,14,16,13.2c0-0.7-0.2-1.3-0.7-1.8S14.2,10.7,13.5,10.7z M11,19.4c0-0.7,0.2-1.3,0.7-1.8
					s1.1-0.7,1.8-0.7s1.3,0.2,1.8,0.7s0.7,1.1,0.7,1.8s-0.2,1.3-0.7,1.8S14.2,22,13.5,22s-1.3-0.2-1.8-0.7S11,20.1,11,19.4z"/>
			</g>
		</g>
	</g>
</g>
</svg>
