<?xml version="1.0" encoding="utf-8"?>
<!-- Generator: Adobe Illustrator 21.0.0, SVG Export Plug-In . SVG Version: 6.00 Build 0)  -->
<svg version="1.1" id="Layer_1" xmlns="http://www.w3.org/2000/svg" xmlns:xlink="http://www.w3.org/1999/xlink" x="0px" y="0px"
	 viewBox="0 0 14 16" style="enable-background:new 0 0 14 16;" xml:space="preserve">
<style type="text/css">
	.st0{enable-background:new    ;}
	.st1{fill:#080808;}
</style>
<title>icon / notification</title>
<desc>Created with Sketch.</desc>
<g id="Styleguide">
	<g id="Artboard" transform="translate(-1754.000000, -430.000000)">
		<g id="icon-_x2F_-_x23_1" transform="translate(1748.000000, 425.000000)">
			<g class="st0">
				<path class="st1" d="M19.6,16.4c0.3,0.3,0.4,0.7,0.4,1.1s-0.1,0.8-0.4,1S18.9,19,18.5,19H15c0,0.6-0.2,1-0.6,1.4S13.6,21,13,21
					s-1-0.2-1.4-0.6S11,19.6,11,19H7.5c-0.4,0-0.8-0.1-1.1-0.4S6,17.9,6,17.5s0.2-0.8,0.5-1.1s0.5-0.6,0.7-0.8
					c0.2-0.4,0.4-0.9,0.6-1.5C7.9,13.4,8,12.5,8,11.5c0-0.8,0.2-1.6,0.5-2.3S9.4,7.9,10,7.5s1.3-0.8,2.1-0.9C12.1,6.4,12,6.2,12,6
					c0-0.3,0.1-0.5,0.3-0.7S12.7,5,13,5s0.5,0.1,0.7,0.3S14,5.7,14,6c0,0.2-0.1,0.4-0.2,0.6C14.6,6.7,15.3,7,16,7.5s1.1,1.1,1.5,1.8
					s0.5,1.5,0.5,2.3c0,1,0.1,1.9,0.2,2.6c0.1,0.6,0.3,1.1,0.6,1.5C19,15.8,19.2,16.1,19.6,16.4z M13,19.8c-0.2,0-0.4-0.1-0.5-0.2
					s-0.2-0.3-0.2-0.5h-0.5c0,0.4,0.1,0.7,0.4,0.9s0.5,0.4,0.9,0.4c0.1,0,0.1,0,0.2-0.1s0.1-0.1,0.1-0.2s0-0.1-0.1-0.2
					S13.1,19.8,13,19.8z"/>
			</g>
		</g>
	</g>
</g>
</svg>
