<?xml version="1.0" encoding="utf-8"?>
<!-- Generator: Adobe Illustrator 21.0.0, SVG Export Plug-In . SVG Version: 6.00 Build 0)  -->
<svg version="1.1" id="Layer_1" xmlns="http://www.w3.org/2000/svg" xmlns:xlink="http://www.w3.org/1999/xlink" x="0px" y="0px"
	 viewBox="0 0 23 14" style="enable-background:new 0 0 23 14;" xml:space="preserve">
<style type="text/css">
	.st0{enable-background:new    ;}
	.st1{fill:#080808;}
</style>
<title>icon / people</title>
<desc>Created with Sketch.</desc>
<g id="Styleguide">
	<g id="Artboard" transform="translate(-2124.000000, -493.000000)">
		<g id="icon-_x2F_-_x23_14" transform="translate(2122.000000, 487.000000)">
			<g class="st0">
				<path class="st1" d="M7,18.7v0.1H3.1c-0.2,0-0.4-0.1-0.6-0.2S2.3,18.3,2.3,18v-1.4c0-0.4,0.1-0.7,0.4-1s0.5-0.5,0.9-0.6l0.9-0.2
					c0.4,0.3,0.9,0.5,1.4,0.5s1.1,0,1.6-0.3C7.2,15.5,7,16,7,16.6V18.7z M6.2,14.8c-0.7,0-1.3-0.2-1.7-0.7C4,13.6,3.7,13,3.7,12.3
					s0.2-1.3,0.7-1.7s1.1-0.7,1.7-0.7s1.3,0.2,1.7,0.7s0.7,1.1,0.7,1.7s-0.2,1.3-0.7,1.7C7.5,14.6,6.9,14.8,6.2,14.8z M17.5,14.1
					c0.6,0.1,1.1,0.4,1.4,0.9s0.5,1,0.5,1.6v2.1c0,0.4-0.1,0.7-0.4,0.9S18.5,20,18.2,20H8.9c-0.4,0-0.7-0.1-0.9-0.4
					s-0.4-0.5-0.4-0.9v-2.1c0-0.6,0.2-1.1,0.5-1.6s0.8-0.8,1.4-0.9l1.4-0.4c0.7,0.5,1.5,0.8,2.4,0.8c1,0,1.9-0.2,2.7-0.8L17.5,14.1z
					 M13.5,6.5c-0.7,0-1.3,0.2-1.9,0.5s-1,0.8-1.3,1.3s-0.5,1.2-0.5,1.9s0.2,1.3,0.5,1.9s0.8,1,1.3,1.3s1.2,0.5,1.9,0.5
					s1.3-0.2,1.9-0.5s1-0.8,1.3-1.3s0.5-1.2,0.5-1.9S17,8.9,16.7,8.3s-0.8-1-1.3-1.3S14.2,6.5,13.5,6.5z M20.8,14.8
					c-0.7,0-1.3-0.2-1.7-0.7c-0.5-0.5-0.7-1.1-0.7-1.7s0.2-1.3,0.7-1.7s1.1-0.7,1.7-0.7s1.3,0.2,1.7,0.7s0.7,1.1,0.7,1.7
					s-0.2,1.3-0.7,1.7C22.1,14.6,21.5,14.8,20.8,14.8z M23.5,15c0.4,0.1,0.7,0.3,0.9,0.6s0.4,0.6,0.4,1V18c0,0.2-0.1,0.4-0.2,0.6
					s-0.4,0.2-0.6,0.2H20v-2.3c0-0.6-0.2-1.1-0.5-1.6c0.5,0.2,1,0.3,1.5,0.3c0.6,0,1.1-0.2,1.5-0.6L23.5,15z"/>
			</g>
		</g>
	</g>
</g>
</svg>
