<?xml version="1.0" encoding="utf-8"?>
<!-- Generator: Adobe Illustrator 21.0.0, SVG Export Plug-In . SVG Version: 6.00 Build 0)  -->
<svg version="1.1" id="Layer_1" xmlns="http://www.w3.org/2000/svg" xmlns:xlink="http://www.w3.org/1999/xlink" x="0px" y="0px"
	 viewBox="0 0 12 16" style="enable-background:new 0 0 12 16;" xml:space="preserve">
<style type="text/css">
	.st0{enable-background:new    ;}
	.st1{fill:#080808;}
</style>
<title>icon / pin</title>
<desc>Created with Sketch.</desc>
<g id="Styleguide">
	<g id="Artboard" transform="translate(-1902.000000, -430.000000)">
		<g id="icon-_x2F_-_x23_3" transform="translate(1895.000000, 425.000000)">
			<g class="st0">
				<path class="st1" d="M10.3,17.7c-1-1.5-1.7-2.5-2.1-3c-0.5-0.8-0.8-1.4-1-1.9S7,11.7,7,11c0-1.1,0.3-2.1,0.8-3S9.1,6.4,10,5.8
					S11.9,5,13,5c1.1,0,2.1,0.3,3,0.8s1.6,1.3,2.2,2.2S19,9.9,19,11c0,0.7-0.1,1.3-0.2,1.8s-0.5,1.1-1,1.9c-0.3,0.5-1,1.5-2.1,3
					l-2.1,3C13.5,20.9,13.3,21,13,21s-0.5-0.1-0.6-0.3C11.8,19.9,11.1,18.9,10.3,17.7z"/>
			</g>
		</g>
	</g>
</g>
</svg>
