<?xml version="1.0" encoding="utf-8"?>
<!-- Generator: Adobe Illustrator 21.0.0, SVG Export Plug-In . SVG Version: 6.00 Build 0)  -->
<svg version="1.1" id="Layer_1" xmlns="http://www.w3.org/2000/svg" xmlns:xlink="http://www.w3.org/1999/xlink" x="0px" y="0px"
	 viewBox="0 0 18 19" style="enable-background:new 0 0 18 19;" xml:space="preserve">
<style type="text/css">
	.st0{enable-background:new    ;}
	.st1{fill:#080808;}
</style>
<title>icon / search</title>
<desc>Created with Sketch.</desc>
<g id="Styleguide">
	<g id="Artboard" transform="translate(-2050.000000, -491.000000)">
		<g id="icon-_x2F_-_x23_13" transform="translate(2046.000000, 487.000000)">
			<g class="st0">
				<path class="st1" d="M21.8,19.8c0.2,0.2,0.2,0.4,0.2,0.6s-0.1,0.4-0.2,0.6l-1,1c-0.2,0.2-0.4,0.2-0.6,0.2s-0.4-0.1-0.6-0.2
					l-3.5-3.5c-0.2-0.2-0.2-0.4-0.2-0.6v-0.6c-1.3,1-2.8,1.5-4.5,1.5c-1.3,0-2.6-0.3-3.7-1s-2-1.5-2.7-2.7c-0.7-1.1-1-2.3-1-3.7
					S4.3,9,5,7.9s1.5-2,2.7-2.7s2.3-1,3.7-1s2.6,0.3,3.7,1s2,1.5,2.7,2.7s1,2.3,1,3.7c0,1.7-0.5,3.2-1.5,4.5h0.6
					c0.2,0,0.4,0.1,0.6,0.2L21.8,19.8z M11.3,16.1c0.8,0,1.6-0.2,2.3-0.6s1.2-0.9,1.6-1.6s0.6-1.4,0.6-2.3s-0.2-1.6-0.6-2.3
					s-0.9-1.2-1.6-1.6c-0.7-0.4-1.4-0.6-2.3-0.6S9.8,7.3,9.1,7.7C8.4,8.1,7.8,8.6,7.4,9.3s-0.6,1.4-0.6,2.3s0.2,1.6,0.6,2.3
					s0.9,1.2,1.6,1.6S10.5,16.1,11.3,16.1z"/>
			</g>
		</g>
	</g>
</g>
</svg>
