<?xml version="1.0" encoding="utf-8"?>
<!-- Generator: Adobe Illustrator 21.0.0, SVG Export Plug-In . SVG Version: 6.00 Build 0)  -->
<svg version="1.1" id="Layer_1" xmlns="http://www.w3.org/2000/svg" xmlns:xlink="http://www.w3.org/1999/xlink" x="0px" y="0px"
	 viewBox="0 0 21 19" style="enable-background:new 0 0 21 19;" xml:space="preserve">
<style type="text/css">
	.st0{enable-background:new    ;}
	.st1{fill:#7E20C8;}
</style>
<title>icon / diamond copy</title>
<desc>Created with Sketch.</desc>
<g id="Styleguide">
	<g id="Artboard" transform="translate(-1826.000000, -694.000000)">
		<g id="icon-_x2F_-diamond-copy" transform="translate(1826.000000, 694.000000)">
			<g class="st0">
				<path class="st1" d="M6.4,0.2L3.9,5.9H0.4l3.2-5.6H6.4z M3.9,7l4.3,8.9c0,0,0,0.1-0.1,0.1c-0.1,0-0.1,0-0.1,0L0.4,7H3.9z
					 M15.4,7l-4.8,11.2c0,0-0.1,0.1-0.1,0.1s-0.1,0-0.1-0.1L5.6,7H15.4z M15.4,5.9H5.6l2.5-5.6H13L15.4,5.9z M17.1,7h3.6l-7.7,9
					c0,0-0.1,0.1-0.1,0c-0.1,0-0.1-0.1-0.1-0.1L17.1,7z M20.6,5.9h-3.6l-2.4-5.6h2.8L20.6,5.9z"/>
			</g>
		</g>
	</g>
</g>
</svg>
