<?xml version="1.0" encoding="utf-8"?>
<!-- Generator: Adobe Illustrator 21.0.0, SVG Export Plug-In . SVG Version: 6.00 Build 0)  -->
<svg version="1.1" id="Layer_1" xmlns="http://www.w3.org/2000/svg" xmlns:xlink="http://www.w3.org/1999/xlink" x="0px" y="0px"
	 viewBox="0 0 14 16" style="enable-background:new 0 0 14 16;" xml:space="preserve">
<style type="text/css">
	.st0{enable-background:new    ;}
	.st1{fill:#7E20C8;}
</style>
<title>icon / notification copy</title>
<desc>Created with Sketch.</desc>
<g id="Styleguide">
	<g id="Artboard" transform="translate(-1754.000000, -633.000000)">
		<g id="icon-_x2F_-notification-copy" transform="translate(1754.000000, 633.000000)">
			<g class="st0">
				<path class="st1" d="M13.6,11.4c0.3,0.3,0.4,0.7,0.4,1.1s-0.1,0.8-0.4,1S12.9,14,12.5,14H9c0,0.6-0.2,1-0.6,1.4S7.6,16,7,16
					s-1-0.2-1.4-0.6S5,14.6,5,14H1.5c-0.4,0-0.8-0.1-1.1-0.4S0,12.9,0,12.5s0.2-0.8,0.5-1.1s0.5-0.6,0.7-0.8
					c0.2-0.4,0.4-0.9,0.6-1.5C1.9,8.4,2,7.5,2,6.5c0-0.8,0.2-1.6,0.5-2.3S3.4,2.9,4,2.5s1.3-0.8,2.1-0.9C6.1,1.4,6,1.2,6,1
					c0-0.3,0.1-0.5,0.3-0.7S6.7,0,7,0s0.5,0.1,0.7,0.3S8,0.7,8,1c0,0.2-0.1,0.4-0.2,0.6C8.6,1.7,9.3,2,10,2.5s1.1,1.1,1.5,1.8
					S12,5.7,12,6.5c0,1,0.1,1.9,0.2,2.6c0.1,0.6,0.3,1.1,0.6,1.5C13,10.8,13.2,11.1,13.6,11.4z M7,14.8c-0.2,0-0.4-0.1-0.5-0.2
					S6.2,14.2,6.2,14H5.8c0,0.4,0.1,0.7,0.4,0.9s0.5,0.4,0.9,0.4c0.1,0,0.1,0,0.2-0.1s0.1-0.1,0.1-0.2s0-0.1-0.1-0.2
					S7.1,14.8,7,14.8z"/>
			</g>
		</g>
	</g>
</g>
</svg>
