<?xml version="1.0" encoding="utf-8"?>
<!-- Generator: Adobe Illustrator 21.0.0, SVG Export Plug-In . SVG Version: 6.00 Build 0)  -->
<svg version="1.1" id="Layer_1" xmlns="http://www.w3.org/2000/svg" xmlns:xlink="http://www.w3.org/1999/xlink" x="0px" y="0px"
	 viewBox="0 0 16 17" style="enable-background:new 0 0 16 17;" xml:space="preserve">
<style type="text/css">
	.st0{enable-background:new    ;}
	.st1{fill:#7E20C8;}
</style>
<title>icon / plus copy</title>
<desc>Created with Sketch.</desc>
<g id="Styleguide">
	<g id="Artboard" transform="translate(-2266.000000, -762.000000)">
		<g id="icon-_x2F_-plus-copy" transform="translate(2266.000000, 761.000000)">
			<g class="st0">
				<path class="st1" d="M15.9,10.6c0,0.2-0.1,0.4-0.2,0.6s-0.4,0.2-0.6,0.2h-4.9v4.9c0,0.2-0.1,0.4-0.2,0.6s-0.4,0.2-0.6,0.2H6.7
					c-0.2,0-0.4-0.1-0.6-0.2s-0.2-0.4-0.2-0.6v-4.9H1c-0.2,0-0.4-0.1-0.6-0.2s-0.2-0.4-0.2-0.6V7.9c0-0.2,0.1-0.4,0.2-0.6
					S0.8,7.1,1,7.1h4.9V2.2c0-0.2,0.1-0.4,0.2-0.6s0.4-0.2,0.6-0.2h2.7c0.2,0,0.4,0.1,0.6,0.2s0.2,0.4,0.2,0.6v4.9H15
					c0.2,0,0.4,0.1,0.6,0.2s0.2,0.4,0.2,0.6V10.6z"/>
			</g>
		</g>
	</g>
</g>
</svg>
