<?xml version="1.0" encoding="UTF-8"?>
<svg width="22px" height="22px" viewBox="0 0 22 22" version="1.1" xmlns="http://www.w3.org/2000/svg" xmlns:xlink="http://www.w3.org/1999/xlink">
    <!-- Generator: Sketch 50 (54983) - http://www.bohemiancoding.com/sketch -->
    <title>feedsOutline</title>
    <desc>Created with Sketch.</desc>
    <defs></defs>
    <g id="Styleguide" stroke="none" stroke-width="1" fill="none" fill-rule="evenodd">
        <g id="Artboard" transform="translate(-1750.000000, -307.000000)" fill="#131314">
            <path d="M1756.1875,309.75 C1755.808,309.75 1755.5,310.058 1755.5,310.4375 C1755.5,310.817687 1755.808,311.125 1756.1875,311.125 C1756.567,311.125 1756.875,310.817687 1756.875,310.4375 C1756.875,310.058 1756.567,309.75 1756.1875,309.75 L1756.1875,309.75 Z M1758.9375,309.75 C1758.558,309.75 1758.25,310.058 1758.25,310.4375 C1758.25,310.817687 1758.558,311.125 1758.9375,311.125 C1759.317,311.125 1759.625,310.817687 1759.625,310.4375 C1759.625,310.058 1759.317,309.75 1758.9375,309.75 L1758.9375,309.75 Z M1770.625,312.5 L1751.375,312.5 L1751.375,309.75 C1751.375,308.991 1751.991,308.375 1752.75,308.375 L1769.25,308.375 C1770.009,308.375 1770.625,308.991 1770.625,309.75 L1770.625,312.5 L1770.625,312.5 Z M1770.625,326.25 C1770.625,327.009 1770.009,327.625 1769.25,327.625 L1752.75,327.625 C1751.991,327.625 1751.375,327.009 1751.375,326.25 L1751.375,313.875 L1770.625,313.875 L1770.625,326.25 L1770.625,326.25 Z M1769.25,307 L1752.75,307 C1751.23131,307 1750,308.231312 1750,309.75 L1750,326.25 C1750,327.768687 1751.23131,329 1752.75,329 L1769.25,329 C1770.76869,329 1772,327.768687 1772,326.25 L1772,309.75 C1772,308.231312 1770.76869,307 1769.25,307 L1769.25,307 Z M1753.4375,309.75 C1753.058,309.75 1752.75,310.058 1752.75,310.4375 C1752.75,310.817687 1753.058,311.125 1753.4375,311.125 C1753.817,311.125 1754.125,310.817687 1754.125,310.4375 C1754.125,310.058 1753.817,309.75 1753.4375,309.75 L1753.4375,309.75 Z" id="feedsOutline"></path>
        </g>
    </g>
</svg>