<?xml version="1.0" encoding="UTF-8"?>
<svg width="22px" height="22px" viewBox="0 0 22 22" version="1.1" xmlns="http://www.w3.org/2000/svg" xmlns:xlink="http://www.w3.org/1999/xlink">
    <!-- Generator: Sketch 50 (54983) - http://www.bohemiancoding.com/sketch -->
    <title>feedSolid</title>
    <desc>Created with Sketch.</desc>
    <defs>
        <linearGradient x1="1.02962428%" y1="48.9703757%" x2="98.9703757%" y2="48.9703757%" id="linearGradient-1">
            <stop stop-color="#AC34AB" offset="0%"></stop>
            <stop stop-color="#8A13D2" offset="100%"></stop>
        </linearGradient>
    </defs>
    <g id="Styleguide" stroke="none" stroke-width="1" fill="none" fill-rule="evenodd">
        <g id="Artboard" transform="translate(-2041.000000, -307.000000)" fill="url(#linearGradient-1)">
            <path d="M2041,326.25 C2041,327.768687 2042.23131,329 2043.75,329 L2060.25,329 C2061.76869,329 2063,327.768687 2063,326.25 L2063,313.875 L2041,313.875 L2041,326.25 L2041,326.25 Z M2049.9375,311.125 C2049.558,311.125 2049.25,310.817687 2049.25,310.4375 C2049.25,310.058 2049.558,309.75 2049.9375,309.75 C2050.317,309.75 2050.625,310.058 2050.625,310.4375 C2050.625,310.817687 2050.317,311.125 2049.9375,311.125 L2049.9375,311.125 Z M2047.1875,311.125 C2046.808,311.125 2046.5,310.817687 2046.5,310.4375 C2046.5,310.058 2046.808,309.75 2047.1875,309.75 C2047.567,309.75 2047.875,310.058 2047.875,310.4375 C2047.875,310.817687 2047.567,311.125 2047.1875,311.125 L2047.1875,311.125 Z M2044.4375,311.125 C2044.058,311.125 2043.75,310.817687 2043.75,310.4375 C2043.75,310.058 2044.058,309.75 2044.4375,309.75 C2044.817,309.75 2045.125,310.058 2045.125,310.4375 C2045.125,310.817687 2044.817,311.125 2044.4375,311.125 L2044.4375,311.125 Z M2060.25,307 L2043.75,307 C2042.23131,307 2041,308.231312 2041,309.75 L2041,312.5 L2063,312.5 L2063,309.75 C2063,308.231312 2061.76869,307 2060.25,307 L2060.25,307 Z" id="feedSolid"></path>
        </g>
    </g>
</svg>