<?xml version="1.0" encoding="utf-8"?>
<!-- Generator: Adobe Illustrator 21.0.0, SVG Export Plug-In . SVG Version: 6.00 Build 0)  -->
<svg version="1.1" id="Layer_1" xmlns="http://www.w3.org/2000/svg" xmlns:xlink="http://www.w3.org/1999/xlink" x="0px" y="0px"
	 viewBox="0 0 16 15" style="enable-background:new 0 0 16 15;" xml:space="preserve">
<style type="text/css">
	.st0{enable-background:new    ;}
	.st1{fill:#080808;}
</style>
<title>icon / hamb</title>
<desc>Created with Sketch.</desc>
<g id="Styleguide">
	<g id="Artboard" transform="translate(-2266.000000, -493.000000)">
		<g id="icon-_x2F_-_x23_16" transform="translate(2261.000000, 487.000000)">
			<g class="st0">
				<path class="st1" d="M5.7,8.9c-0.2,0-0.3-0.1-0.4-0.2S5.1,8.5,5.1,8.3V6.9c0-0.2,0.1-0.3,0.2-0.4s0.2-0.2,0.4-0.2h14.6
					c0.2,0,0.3,0.1,0.4,0.2s0.2,0.2,0.2,0.4v1.4c0,0.2-0.1,0.3-0.2,0.4s-0.2,0.2-0.4,0.2H5.7z M5.7,14.5c-0.2,0-0.3-0.1-0.4-0.2
					S5.1,14.1,5.1,14v-1.4c0-0.2,0.1-0.3,0.2-0.4S5.5,12,5.7,12h14.6c0.2,0,0.3,0.1,0.4,0.2s0.2,0.2,0.2,0.4V14
					c0,0.2-0.1,0.3-0.2,0.4s-0.2,0.2-0.4,0.2H5.7z M5.7,20.1c-0.2,0-0.3-0.1-0.4-0.2s-0.2-0.2-0.2-0.4v-1.4c0-0.2,0.1-0.3,0.2-0.4
					s0.2-0.2,0.4-0.2h14.6c0.2,0,0.3,0.1,0.4,0.2s0.2,0.2,0.2,0.4v1.4c0,0.2-0.1,0.3-0.2,0.4s-0.2,0.2-0.4,0.2H5.7z"/>
			</g>
		</g>
	</g>
</g>
</svg>
