<?xml version="1.0" encoding="utf-8"?>
<!-- Generator: Adobe Illustrator 21.0.0, SVG Export Plug-In . SVG Version: 6.00 Build 0)  -->
<svg version="1.1" id="Layer_1" xmlns="http://www.w3.org/2000/svg" xmlns:xlink="http://www.w3.org/1999/xlink" x="0px" y="0px"
	 viewBox="0 0 16 15" style="enable-background:new 0 0 16 15;" xml:space="preserve">
<style type="text/css">
	.st0{enable-background:new    ;}
	.st1{fill:#7E20C8;}
</style>
<title>icon / hamb copy</title>
<desc>Created with Sketch.</desc>
<g id="Styleguide">
	<g id="Artboard" transform="translate(-2266.000000, -696.000000)">
		<g id="icon-_x2F_-hamb-copy" transform="translate(2266.000000, 694.000000)">
			<g class="st0">
				<path class="st1" d="M0.7,4.9c-0.2,0-0.3-0.1-0.4-0.2S0.1,4.5,0.1,4.3V2.9c0-0.2,0.1-0.3,0.2-0.4s0.2-0.2,0.4-0.2h14.6
					c0.2,0,0.3,0.1,0.4,0.2s0.2,0.2,0.2,0.4v1.4c0,0.2-0.1,0.3-0.2,0.4s-0.2,0.2-0.4,0.2H0.7z M0.7,10.5c-0.2,0-0.3-0.1-0.4-0.2
					S0.1,10.1,0.1,10V8.5c0-0.2,0.1-0.3,0.2-0.4S0.5,8,0.7,8h14.6c0.2,0,0.3,0.1,0.4,0.2s0.2,0.2,0.2,0.4V10c0,0.2-0.1,0.3-0.2,0.4
					s-0.2,0.2-0.4,0.2H0.7z M0.7,16.1c-0.2,0-0.3-0.1-0.4-0.2c-0.1-0.1-0.2-0.2-0.2-0.4v-1.4c0-0.2,0.1-0.3,0.2-0.4s0.2-0.2,0.4-0.2
					h14.6c0.2,0,0.3,0.1,0.4,0.2s0.2,0.2,0.2,0.4v1.4c0,0.2-0.1,0.3-0.2,0.4c-0.1,0.1-0.2,0.2-0.4,0.2H0.7z"/>
			</g>
		</g>
	</g>
</g>
</svg>
