<?xml version="1.0" encoding="UTF-8"?>
<svg width="22px" height="22px" viewBox="0 0 22 22" version="1.1" xmlns="http://www.w3.org/2000/svg" xmlns:xlink="http://www.w3.org/1999/xlink">
    <!-- Generator: Sketch 50 (54983) - http://www.bohemiancoding.com/sketch -->
    <title>messageOutline</title>
    <desc>Created with Sketch.</desc>
    <defs></defs>
    <g id="Styleguide" stroke="none" stroke-width="1" fill="none" fill-rule="evenodd">
        <g id="Artboard" transform="translate(-1894.000000, -307.000000)" fill="#131314">
            <path d="M1905,324.875 C1904.197,324.875 1903.4215,324.7815 1902.67625,324.622688 L1899.4395,326.568312 L1899.48281,323.379 C1897.00163,321.887125 1895.375,319.420375 1895.375,316.625 C1895.375,312.068938 1899.68425,308.375 1905,308.375 C1910.31575,308.375 1914.625,312.068938 1914.625,316.625 C1914.625,321.18175 1910.31575,324.875 1905,324.875 L1905,324.875 Z M1905,307 C1898.92525,307 1894,311.309937 1894,316.625 C1894,319.663062 1895.61219,322.368375 1898.125,324.131812 L1898.125,329 L1902.94369,326.076063 C1903.61056,326.186062 1904.29669,326.25 1905,326.25 C1911.07475,326.25 1916,321.94075 1916,316.625 C1916,311.309937 1911.07475,307 1905,307 L1905,307 Z" id="messageOutline"></path>
        </g>
    </g>
</svg>