<?xml version="1.0" encoding="UTF-8"?>
<svg width="26px" height="26px" viewBox="0 0 26 26" version="1.1" xmlns="http://www.w3.org/2000/svg" xmlns:xlink="http://www.w3.org/1999/xlink">
    <!-- Generator: Sketch 50 (54983) - http://www.bohemiancoding.com/sketch -->
    <title>icon / profile line</title>
    <desc>Created with Sketch.</desc>
    <defs></defs>
    <g id="Symbols" stroke="none" stroke-width="1" fill="none" fill-rule="evenodd">
        <g id="Header" transform="translate(-1106.000000, -27.000000)">
            <g id="icon-/-profile-line" transform="translate(1106.000000, 27.000000)">
                <g id="Group-11">
                    <rect id="Rectangle-5-Copy-4" fill="#FFFFFF" x="0" y="0" width="26" height="26"></rect>
                    <path d="M18.75,19.53125 C18.75,21.2396875 17.238875,22.625 15.3750625,22.625 L9.7499375,22.625 C7.886125,22.625 6.375,21.2396875 6.375,19.53125 L6.375,17.46875 C6.375,16.007125 7.4839375,14.79025 8.9703125,14.4664375 C9.984375,15.2715 11.221875,15.75 12.5625,15.75 C13.903125,15.75 15.140625,15.2715 16.1546875,14.4664375 C17.6410625,14.79025 18.75,16.007125 18.75,17.46875 L18.75,19.53125 L18.75,19.53125 Z M7.75,8.875 C7.75,5.837625 9.904625,3.375 12.5625,3.375 C15.220375,3.375 17.375,5.837625 17.375,8.875 C17.375,11.912375 15.220375,14.375 12.5625,14.375 C9.904625,14.375 7.75,11.912375 7.75,8.875 L7.75,8.875 Z M17.3413125,13.2426875 C18.220625,12.0546875 18.75,10.53325 18.75,8.875 C18.75,5.078625 15.9800625,2 12.5625,2 C9.1449375,2 6.375,5.078625 6.375,8.875 C6.375,10.53325 6.904375,12.0546875 7.7836875,13.2426875 C6.1680625,13.8009375 5,15.3189375 5,17.125 L5,19.875 C5,22.1526875 6.8473125,24 9.125,24 L16,24 C18.2776875,24 20.125,22.1526875 20.125,19.875 L20.125,17.125 C20.125,15.3189375 18.9569375,13.8009375 17.3413125,13.2426875 L17.3413125,13.2426875 Z" id="Fill-177" fill="#131314"></path>
                </g>
            </g>
        </g>
    </g>
</svg>