<?xml version="1.0" encoding="UTF-8"?>
<svg width="22px" height="22px" viewBox="0 0 22 22" version="1.1" xmlns="http://www.w3.org/2000/svg" xmlns:xlink="http://www.w3.org/1999/xlink">
    <!-- Generator: Sketch 50 (54983) - http://www.bohemiancoding.com/sketch -->
    <title>searchOutline</title>
    <desc>Created with Sketch.</desc>
    <defs></defs>
    <g id="Styleguide" stroke="none" stroke-width="1" fill="none" fill-rule="evenodd">
        <g id="Artboard" transform="translate(-1822.000000, -308.000000)" fill="#131314">
            <path d="M1831.25614,324.81463 C1826.93065,324.81463 1823.42418,321.369178 1823.42418,317.112223 C1823.42418,312.855267 1826.93065,309.402938 1831.25614,309.402938 C1835.58163,309.402938 1839.08878,312.855267 1839.08878,317.112223 C1839.08878,321.369178 1835.58163,324.81463 1831.25614,324.81463 L1831.25614,324.81463 Z M1843.79112,328.803376 L1838.11159,323.212254 C1839.59835,321.596124 1840.51227,319.464208 1840.51227,317.112223 C1840.51227,312.078149 1836.36833,308 1831.25614,308 C1826.14394,308 1822,312.078149 1822,317.112223 C1822,322.139419 1826.14394,326.217568 1831.25614,326.217568 C1833.46496,326.217568 1835.49085,325.454204 1837.08214,324.181932 L1842.78436,329.793686 C1843.06287,330.068771 1843.5133,330.068771 1843.79112,329.793686 C1844.06963,329.525477 1844.06963,329.078462 1843.79112,328.803376 L1843.79112,328.803376 Z" id="searchOutline"></path>
        </g>
    </g>
</svg>